# xmcd
#
# Track frame offsets:
#	150
#	17732
#	38841
#	57256
#	73647
#	89719
#	103890
#	119783
#	137651
#
# Disc length: 2005 seconds
#
# Revision: 1
# Processed by: cddbd v1.5.2PL0 Copyright (c) Steve Scherf et al.
# Submitted via: audiograbber 1.83.01
#
DISCID=8507d309
DTITLE=Roy Buchanan - My Babe
DYEAR=1900
DGENRE=
TTITLE0=You Gotta Let Me Know
TTITLE1=My Babe
TTITLE2=It Should've Been Me
TTITLE3=Secret Love
TTITLE4=Lack of Funk
TTITLE5=Dr_ Rock and Roll
TTITLE6=Dizzy Miss Lizzy
TTITLE7=Blues for Gary
TTITLE8=My Sonata
EXTD=
EXTT0=
EXTT1=
EXTT2=
EXTT3=
EXTT4=
EXTT5=
EXTT6=
EXTT7=
EXTT8=
PLAYORDER=
